<svg xmlns:xlink="http://www.w3.org/1999/xlink" height="38" viewBox="0 0 115 115" width="38" xmlns="http://www.w3.org/2000/svg"><g fill="#FFFFFF" fill-rule="evenodd"><path d="M90.853 62.002a.637.637 0 0 1 0 .815l-4.036 4.036a.637.637 0 0 1-.815 0L79 59.851l-7.002 7.002a.637.637 0 0 1-.815 0l-4.036-4.036a.637.637 0 0 1 0-.815L74.149 55l-7.002-7.002a.637.637 0 0 1 0-.815l4.036-4.036a.637.637 0 0 1 .815 0L79 50.149l7.002-7.002a.637.637 0 0 1 .815 0l4.036 4.036a.637.637 0 0 1 0 .815L83.851 55l7.002 7.002zM59.48 26.507v56.986c0 .68-.305 1.148-.914 1.405-.703.211-1.253.094-1.651-.351L40.824 66.88H29.51c-.422 0-.78-.146-1.072-.439A1.458 1.458 0 0 1 28 65.37V44.607c0-.422.146-.779.44-1.072.292-.292.65-.439 1.07-.439h11.314l16.09-17.643c.399-.445.95-.562 1.652-.351.609.257.913.726.913 1.405z" fill="#FFFFFF"></path></g></svg>